<svg version="1.2" xmlns="http://www.w3.org/2000/svg" viewBox="0 0 668 686" width="668" height="686">
	<style>
		.s0 { fill: none;stroke: #000000;stroke-miterlimit:10;stroke-width: 4 } 
		.s1 { fill: none;stroke: #ccdde2;stroke-miterlimit:10;stroke-width: 4 } 
		.s2 { fill: #016eea } 
		.s3 { fill: #2e2e2e } 
		.s4 { opacity: .54;fill: #ffffff } 
		.s5 { fill: none;stroke: #000000;stroke-linecap: square;stroke-linejoin: round;stroke-width: 4 } 
		.s6 { fill: #d7e8f0 } 
		.s7 { fill: #3fbdf1 } 
		.s8 { fill: #ffffff } 
		.s9 { fill: #000000 } 
		.s10 { opacity: .54;fill: #67adfe } 
		.s11 { fill: #67adfe } 
	</style>
	<path class="s0" d="m58.78 381.08q-0.69-9.16-1.11-18.32"/>
	<path class="s1" d="m396.89 600.69h-169.69"/>
	<path class="s1" d="m446.42 164.15c0 0 50.01-24.25 92.44 23.06 13.86 15.47 23.31 35.99 23.98 57.16 0.31 10.32-1.32 20.62-4.77 30.32-3.52 9.91-9.84 16.47-14.7 25.29-7.45 13.6 8.12 16.01 16.48 22.6q8.34 6.64 15.77 14.33c11.16 11.44 20.97 24.17 29.25 37.95 16.38 27.45 26.25 58.47 28.8 90.56 2.52 31.63 0.59 65.99-15.21 94.09-7.6 13.54-19.05 26.81-33.13 33.12-18.71 8.38-39.71 8.07-59.7 8.07h-42.53"/>
	<path class="s2" d="m947.98 447.3c-1.68 12.25-4.18 26.3-6.94 40.37l-3.25 0.96c-10.41 3-21.47 2.67-31.69-0.96l4.26-14.87-25.95-77.52c0 0 19.84-6.58 36.12-11.47l1.87-0.09c8.9 1.93 27.24 9.17 27.81 36.27 0.04 1.31 0 2.68 0 4.17 2.59 8.75 1.56 16.46-2.23 23.14z"/>
	<path class="s2" d="m89.91-142.78c-0.26-0.67-0.76-1.21-1.4-1.5-0.64-0.29-1.36-0.32-2.02-0.07q-0.55 0.17-0.99 0.57c-1.03 0.86-1.26 2.36-1.3 3.79q-0.15 4.89-0.51 9.76c0 0.22-0.03 0.47-0.03 0.69-0.15 2.61-0.04 5.78-1.12 8.06q-0.11 0.27-0.34 0.43c-0.36 0.17-0.74-0.2-0.98-0.54q-1-1.49-2-3c-0.53-0.82-1.12-1.7-2.05-1.97-1.36-0.39-2.67 0.85-3.42 2.12-2.44 4.11-2.67 10.86 1.1 14.31 3.77 3.45-4.68 10.23-10.73 13.09q-1.52 0.88-3.17 1.46c-0.05 0 2.18 0.52 2.13 0.54-4.71 1.68-9.62 2.72-14.59 3.08-5.9 0.4-11.66-0.36-15.85-2.99 0.18-0.69 1.61-5.49 1.7-6.17q0.45-3.58 0.66-7.18c0.26-4.52 0.24-9.05 0.07-13.56-0.61-16.21 2.21-29.84 8.72-31.92q0.78-0.23 1.47-0.66c2.94-1.67 4.51-5.19 3.16-8.51q-0.14-0.33-0.29-0.68-0.16-0.36-0.36-0.69c12.73-4.06 21.38-1.24 30.11 3.67q2.5 2.05 4.68 4.45c3.42 3.82 5.93 8.39 7.35 13.37z"/>
	<path class="s3" d="m482.96 341.14h-43.42v-106.58c0 0-8.01 92.61-29.98 145.07h-134.47c15.85-10.34 28.56-25.97 37.03-42.79 3.34-6.65 8.68-16.53 17.57-13.94 2.11 0.61 5.21 1 6.78-0.98 0.54-0.76 0.85-1.67 0.88-2.61 0.77-9.72-9.04-17.9-17.12-20.48-8.09-2.57-17.53-1.37-23.96 4.66-4.64 4.36-7.55 10.14-10.94 15.5-2.04 3.17-4.45 6.08-7.19 8.64 3.49-21.75 6.6-42.54 7.04-50.18 8.51-6.9 14.75-18.14 16.97-28.09 2.44-10.87 4.59-21.49 8.38-31.66l31 0.1c1.17 0 2.29-0.47 3.11-1.32 0.83-0.85 1.29-2 1.29-3.2v-52.87c0-1.19-0.45-2.33-1.27-3.17-0.81-0.85-1.92-1.33-3.08-1.33l-21.11-0.19c7.67-1.64 15.45-2.71 23.28-3.19q0.23 0 0.44 0c5.15-0.35 14.18-0.5 19.38-0.55-6.2 3.43-10.02 10.71-9.36 17.15q0.18 2.07 1.01 3.96c5.29 11.94 19.23 15.46 30.73 11.99 12.8-3.83 22.2-15.92 21.64-29.82q12.03 1.81 23.81 4.59c11.94 2.82 23.58 6.62 33.02 14.91 8.23 7.19 15.2 16.46 18.43 26.94 13.86 44.79 9.59 94.77 0.11 139.44z"/>
	<path class="s0" d="m285.53 277.45c-0.97 16.36-3.49 32.72-6.21 49.03"/>
	<path class="s3" d="m310.87 217.69c-3.79 10.18-5.94 20.81-8.37 31.67-2.24 9.91-8.47 21.19-16.97 28.09-7.13 5.78-15.87 8.5-25.22 4.85-12.55-4.91-16.95-19.11-18.49-31.63-1.99-15.59-2.12-31.37-0.36-46.99 1.77 4.04 9.01 16.33 31.44 13.1 0.61 0.47 1.33 0.73 2.08 0.76z"/>
	<path class="s0" d="m298.27 182.53c5.23-1.38 8.41 3.78 7.63 7.71-1.26 6.4-10.22 8.91-15.56 9.03-4.28 0.09-14.7-1.07-18.95-1.58"/>
	<path class="s0" d="m269.64 185.69c6.46 1.92 13.3 2.04 19.82 0.34 5.49-1.45 11.97-4.12 14.84-9.47 1.68-3.12 0.34-8.09-3.16-9.18-4.04-1.26-7.78 2.87-11.44 3.91q-3.55 1-7.21 1.38c-0.67 0.07-1.29 0.13-1.94 0.18q-5.13 0.42-10.24-0.07-0.56-0.01-1.01-0.34-0.45-0.34-0.63-0.88-0.17-0.54-0.01-1.09 0.17-0.54 0.62-0.88l0.61-0.46"/>
	<path class="s0" d="m310.87 217.69c-3.79 10.18-5.94 20.8-8.37 31.67-4.12 18.24-21.67 40.97-42.19 32.93-12.55-4.91-16.95-19.11-18.49-31.63-2.4-19.39-2.2-39.3 1.34-58.53 2.94-15.83 8.15-32.46 23.16-40.24l7.04-3.62c1.68-0.87 3.62-1.03 5.42-0.45 1.79 0.58 3.29 1.86 4.18 3.57 0.54 1.05 0.83 2.23 0.83 3.43q0.01 0.26-0.04 0.52"/>
	<path class="s0" d="m453.88 366.5q5.44-0.17 10.87 0.28c2.96 0.25 6.02 0.4 8.83 1.53 2.32 0.94 4.74 3.2 4.61 5.96-0.22 5.4-7.11 5.36-10.89 5.36"/>
	<path class="s4" d="m394 365.35l31.44-82.71c0.39-1.6 0.42-3.28 0.08-4.89-0.34-1.62-1.02-3.13-2.02-4.44-0.99-1.3-2.26-2.35-3.7-3.07-1.45-0.72-3.04-1.09-4.65-1.09h-124.83c-2.8 0.01-5.52 0.98-7.71 2.76-2.2 1.78-3.74 4.27-4.4 7.07l-34.45 82.69c-0.38 1.59-0.39 3.25-0.05 4.86 0.34 1.6 1.03 3.11 2.02 4.4 0.99 1.28 2.25 2.33 3.69 3.04 1.44 0.72 3.02 1.09 4.62 1.09h127.85c2.79 0 5.49-0.95 7.68-2.71 2.2-1.76 3.76-4.23 4.43-7z"/>
	<path class="s2" d="m902 135.35l31.44-82.71c0.39-1.6 0.42-3.28 0.08-4.89-0.34-1.62-1.02-3.13-2.02-4.44-0.99-1.3-2.26-2.35-3.7-3.07-1.45-0.72-3.04-1.09-4.65-1.09h-124.83c-2.8 0.01-5.52 0.98-7.71 2.76-2.2 1.78-3.74 4.27-4.4 7.07l-34.45 82.69c-0.38 1.59-0.39 3.26-0.05 4.86 0.34 1.6 1.03 3.11 2.02 4.4 0.99 1.28 2.25 2.33 3.69 3.05 1.44 0.71 3.02 1.08 4.62 1.08h127.85c2.79 0 5.49-0.95 7.68-2.71 2.2-1.76 3.76-4.23 4.43-7z"/>
	<path class="s5" d="m389 361.35l31.44-82.71c0.39-1.6 0.42-3.28 0.08-4.89-0.33-1.62-1.02-3.13-2.02-4.44-0.99-1.3-2.26-2.35-3.7-3.07-1.45-0.72-3.04-1.09-4.65-1.09h-124.83c-2.8 0.01-5.52 0.98-7.71 2.76-2.2 1.78-3.74 4.27-4.4 7.07l-34.45 82.69c-0.38 1.59-0.39 3.25-0.05 4.86 0.34 1.6 1.03 3.11 2.02 4.4 0.99 1.28 2.25 2.33 3.69 3.04 1.44 0.72 3.02 1.09 4.62 1.09h127.85c2.79 0 5.49-0.95 7.68-2.71 2.2-1.76 3.76-4.23 4.43-7z"/>
	<path class="s2" d="m864.4 214l29-76.3c0.37-1.48 0.39-3.02 0.08-4.51-0.3-1.49-0.94-2.88-1.85-4.08-0.91-1.2-2.08-2.18-3.41-2.84-1.33-0.67-2.8-1.02-4.28-1.02h-115.2c-2.58 0-5.09 0.9-7.12 2.54-2.04 1.65-3.47 3.94-4.07 6.53l-31.73 76.29c-0.34 1.47-0.35 3-0.03 4.48 0.31 1.48 0.95 2.86 1.86 4.05 0.92 1.19 2.08 2.15 3.41 2.81 1.32 0.66 2.78 1 4.25 1h117.92c2.57 0.01 5.06-0.87 7.09-2.5 2.02-1.62 3.46-3.89 4.08-6.45z"/>
	<path class="s6" d="m297.05 283.32c1.53-2.35 4.01-3.43 5.59-2.34 1.57 1.09 1.57 3.83 0.05 6.17q-0.36 0.54-0.8 1.02l11.31 24.54c1.81-1.24 3.79-1.55 5.22-0.57q0.7 0.52 1.11 1.29 0.42 0.78 0.48 1.66l7.74-2.68 6.76-2.34 2.2-0.74q0.42-1.28 1.15-2.41c2.14-3.32 5.65-4.8 7.84-3.3 2.18 1.51 2.21 5.32 0.12 8.61l12.9 18.07c2.81-2.36 6.11-3.1 8.41-1.53 3.12 2.13 3.16 7.69 0.1 12.41-0.12 0.2-0.26 0.35-0.39 0.52l8.58 12.05 0.08 0.12c0.43 0.68 0.59 1.51 0.43 2.31-0.15 0.8-0.61 1.5-1.28 1.95-0.66 0.45-1.47 0.61-2.24 0.45-0.78-0.16-1.47-0.64-1.9-1.32l-7.62-11.8c-2.41 1.43-4.98 1.71-6.85 0.42-2.98-2.06-3.13-7.19-0.47-11.76l-12.34-19.13c-1.82 1.27-3.83 1.59-5.28 0.61-0.8-0.58-1.34-1.47-1.52-2.46l-0.92 0.26-6.87 1.93-8.81 2.44q-0.42 1.63-1.33 3.04c-2.15 3.31-5.66 4.8-7.84 3.29-2.18-1.51-2.22-5.38-0.07-8.7q0.47-0.73 1.05-1.37l-10.77-25c-1.3 0.91-2.74 1.15-3.76 0.44-1.55-1.05-1.58-3.83-0.06-6.15z"/>
	<path class="s6" d="m379.02 284.63h16.7c0.77 0 1.51-0.23 2.15-0.65 0.64-0.43 1.15-1.04 1.45-1.76q0.14-0.33 0.15-0.69c0-0.46-0.18-0.91-0.51-1.24-0.32-0.33-0.76-0.52-1.21-0.52h-17.75c0.83 1.43 0.41 3.44-0.98 4.86z"/>
	<path class="s7" d="m368.23 282.88c0 0.46 0.18 0.91 0.5 1.24 0.32 0.33 0.76 0.51 1.21 0.51h9.08c1.39-1.42 1.81-3.43 0.98-4.87h-8.02c-0.76 0-1.51 0.22-2.15 0.65-0.64 0.43-1.14 1.04-1.45 1.76q-0.15 0.34-0.15 0.71z"/>
	<path class="s8" d="m372.4 284.64q0.08 0.14 0.17 0.26c1.19 1.68 3.78 1.84 5.78 0.33q0.35-0.27 0.67-0.59c1.39-1.42 1.81-3.43 0.97-4.88q-0.06-0.14-0.16-0.27c-1.18-1.68-3.77-1.82-5.77-0.34q-0.36 0.28-0.67 0.61c-1.39 1.43-1.81 3.42-0.99 4.88z"/>
	<path class="s7" d="m364.06 293.64c0 0.47 0.19 0.92 0.51 1.25 0.32 0.32 0.76 0.51 1.21 0.51h17.53c-0.85-1.46-0.43-3.43 0.96-4.88h-16.48c-0.77 0-1.52 0.23-2.16 0.66-0.63 0.43-1.14 1.04-1.45 1.76q-0.13 0.34-0.12 0.7z"/>
	<path class="s6" d="m383.28 295.4h8.24c0.76 0 1.51-0.23 2.15-0.65 0.64-0.43 1.14-1.04 1.45-1.75q0.14-0.33 0.16-0.69 0-0.35-0.13-0.67-0.13-0.33-0.37-0.58-0.25-0.25-0.56-0.38-0.32-0.13-0.66-0.13h-9.32c-1.39 1.4-1.81 3.39-0.96 4.85z"/>
	<path class="s8" d="m383.28 295.4q0.06 0.14 0.15 0.27c1.18 1.68 3.76 1.83 5.77 0.33q0.35-0.27 0.67-0.6c1.37-1.43 1.79-3.43 0.97-4.88q-0.07-0.14-0.16-0.27c-1.2-1.67-3.78-1.82-5.78-0.32q-0.36 0.27-0.67 0.59c-1.38 1.43-1.8 3.42-0.95 4.88z"/>
	<path class="s7" d="m377.42 306.09h10.49c0.76 0 1.51-0.23 2.15-0.66 0.64-0.43 1.14-1.03 1.45-1.75q0.14-0.33 0.15-0.69c0-0.47-0.18-0.92-0.5-1.25-0.33-0.33-0.76-0.52-1.22-0.52h-11.52c0.82 1.44 0.4 3.44-1 4.87z"/>
	<path class="s6" d="m360.44 304.34q0 0.35 0.13 0.67 0.13 0.32 0.37 0.57 0.25 0.24 0.56 0.38 0.32 0.13 0.66 0.13h15.26c1.38-1.43 1.8-3.43 0.97-4.89h-14.2c-0.76 0-1.51 0.23-2.15 0.66-0.64 0.43-1.14 1.04-1.45 1.76q-0.15 0.34-0.15 0.72z"/>
	<path class="s8" d="m370.82 306.09q0.07 0.14 0.17 0.26c1.18 1.69 3.76 1.83 5.77 0.33q0.36-0.27 0.67-0.59c1.37-1.43 1.8-3.43 0.97-4.89q-0.06-0.14-0.16-0.27c-1.19-1.66-3.77-1.81-5.78-0.32q-0.36 0.27-0.67 0.59c-1.38 1.43-1.8 3.44-0.97 4.89z"/>
	<path class="s7" d="m309.63 356.49h10.49c0.76 0 1.51-0.23 2.15-0.65 0.63-0.43 1.14-1.04 1.45-1.76q0.14-0.32 0.15-0.68c0-0.47-0.18-0.92-0.51-1.25-0.32-0.34-0.76-0.52-1.22-0.52h-11.52c0.81 1.44 0.38 3.43-0.99 4.86z"/>
	<path class="s6" d="m267.98 354.74q0 0.35 0.13 0.68 0.14 0.32 0.38 0.56 0.24 0.25 0.55 0.38 0.32 0.13 0.66 0.13h39.92c1.38-1.42 1.81-3.43 0.98-4.88h-38.86c-0.77 0-1.51 0.23-2.16 0.66-0.63 0.43-1.14 1.04-1.45 1.76q-0.14 0.34-0.15 0.71z"/>
	<path class="s8" d="m303 356.49q0.08 0.14 0.17 0.27c1.18 1.68 3.76 1.83 5.77 0.34q0.36-0.28 0.67-0.61c1.38-1.42 1.81-3.43 0.98-4.87q-0.07-0.15-0.16-0.27c-1.2-1.67-3.78-1.82-5.79-0.33q-0.36 0.27-0.67 0.6c-1.37 1.42-1.8 3.43-0.97 4.87z"/>
	<path class="s3" d="m45.54 382.91c0 0-22.04 102.26 34.67 123.63 56.7 21.36 209.88 1.29 146.22-72.49-63.66-73.79-180.89-51.14-180.89-51.14z"/>
	<path class="s0" d="m320.69 155.72q11.58-2.48 23.38-3.2 0.25 0 0.46 0c5.16-0.35 14.21-0.5 19.37-0.56"/>
	<path class="s0" d="m282.49 172.65q-0.07 0.05-0.14 0.11"/>
	<path class="s0" d="m370.37 129.65c-3.94 2.13-8.47 0.69-10.2-2.93"/>
	<path class="s2" d="m422.49-102.04c-0.17 3.15 0.61 6.28 2.25 8.94 1.64 2.67 4.05 4.74 6.9 5.92 0.6-1.13 1.46-2.1 2.51-2.81 4.43-2.94 3.64 4.92 15.66 2.85 16.67-2.89 20.92 3.07 20.92 3.07 0.37 0.52-0.67 3.92-0.81 4.55-0.67 3.65-1.34 7.29-1.95 10.97q-0.59 3.35-1.19 6.66 0.46-0.46 0.96-0.85c2.74-4.39 6.76-9.31 11.13-5.29 0.88 0.84 1.55 1.87 1.97 3.03 2 5.59-1.83 9.19-6.32 11.34q-1.78 1.11-3.74 1.79c0.22 1.41 1.13 7.05 1.13 7.06 0.1 0.58 11.22-6.47 12.15-7.33 1.68-2.27 2.97-4.83 3.83-7.54 3.46-11.21 2.87-25.7-4.09-34.92-1.73-2.28-0.58-3.6-0.08-5.82q0.04-0.19-0.03-0.36-0.07-0.17-0.22-0.28-0.15-0.1-0.34-0.1-0.18 0.01-0.33 0.11c-3.75 2.42-10.55-0.05-10.55-0.05-22.04-13.6-33.34-5.19-38.74-4.76-2.19 0.15-4.37-0.49-6.15-1.8-0.32 0.63-0.79 1.17-1.38 1.55-0.59 0.38-1.27 0.59-1.96 0.6l-0.22 1.18c-0.16 0.9-0.62 1.71-1.31 2.29z"/>
	<path class="s0" d="m356.65 92.85c-2.84-1.19-5.25-3.26-6.89-5.92-1.64-2.67-2.43-5.79-2.25-8.94q0.1-1.82 0.51-3.59l0.19 0.04q0.4 0.1 0.8 0.07c0.7-0.02 1.37-0.23 1.96-0.61 0.59-0.37 1.07-0.91 1.38-1.55q0.28-0.53 0.38-1.13l1.03-5.74c0 0 3.34 4.64 8.68 4.21 5.35-0.43 16.64-8.84 38.75 4.76 0 0 5.3 2.01 9.06-0.41q0.15-0.11 0.33-0.11 0.18 0 0.33 0.1 0.15 0.1 0.23 0.28 0.06 0.17 0.03 0.35c-0.5 2.22-0.17 4.01 1.56 6.29 6.97 9.22 7.56 23.71 4.1 34.92-1.52 4.65-4.21 8.8-7.8 12.02-0.93 0.86-12.06 7.9-12.15 7.33 0 0-0.92-5.65-1.14-7.06l-0.05-0.33 0.31-0.09q1.79-0.57 3.49-1.37c4.48-2.16 8.34-5.75 6.31-11.34-0.41-1.16-1.08-2.2-1.96-3.03-4.38-4.02-8.39 0.9-11.13 5.29q-0.8 1.26-1.29 2.66 0.15-0.89 0.32-1.79 0.6-3.32 1.19-6.66c0.67-3.66 1.29-7.3 1.95-10.97 0.12-0.63 1.18-4.03 0.81-4.55 0 0-4.25-5.96-20.91-3.08-12.03 2.06-11.24-5.79-15.67-2.84-1.05 0.71-1.91 1.68-2.51 2.81q-0.28 0.55-0.5 1.14-0.03 0.07-0.06 0.15-0.44 1.28-0.84 2.54c-2.5 8.16-4.15 16.97-3.26 25.54 1.07 10.38 8.44 22.59 20.16 21.56 3.69-0.45 7.29-1.48 10.66-3.07"/>
	<path class="s9" d="m357.93 114.98c1.15-0.03 2.05-1.21 2.01-2.63-0.04-1.43-1-2.56-2.15-2.52-1.15 0.03-2.05 1.21-2.01 2.64 0.04 1.42 1 2.55 2.15 2.51z"/>
	<path class="s9" d="m373.63 119.32c1.14-0.04 2.04-1.22 2-2.64-0.03-1.42-1-2.55-2.14-2.52-1.15 0.04-2.05 1.22-2.01 2.64 0.04 1.42 1 2.55 2.15 2.52z"/>
	<path class="s0" d="m366.85 120.27c0 0-6.07 1.37-5.46-1.83 0.19-1 1.71-10.83 1.71-10.83 0 0-2.83-5.86-10.24-4.5"/>
	<path class="s0" d="m369.58 106.73c0 0 9.62-1.68 13.31 6.21"/>
	<path class="s0" d="m364.01 151.88c-7.58 4.12-11.63 14.02-8.46 21.19 5.29 11.94 19.22 15.46 30.73 12 12.8-3.84 22.2-15.95 21.64-29.84"/>
	<path class="s0" d="m409.91 379.63c21.98-52.47 29.97-145.07 29.97-145.07v129.2c0 2.08 0.4 4.15 1.17 6.07 0.78 1.93 1.92 3.68 3.35 5.15 1.44 1.47 3.14 2.64 5.01 3.44 1.88 0.8 3.89 1.21 5.92 1.21h48.76c1.83 0.03 3.6-0.64 4.98-1.87 1.38-1.23 2.27-2.94 2.5-4.81 0.1-1.02-0.02-2.06-0.33-3.04-0.32-0.98-0.83-1.88-1.51-2.64-0.67-0.77-1.5-1.38-2.41-1.79-0.92-0.42-1.92-0.63-2.92-0.63h-19.97q-1.21-0.01-2.3-0.55-1.08-0.56-1.83-1.54-0.73-0.98-0.98-2.2-0.24-1.22 0.06-2.42c12.02-48.7 19.46-105.88 3.8-156.47-3.23-10.44-10.2-19.74-18.43-26.93-9.44-8.29-21.08-12.09-33.02-14.9q-11.8-2.78-23.81-4.6-0.04 0.02-0.07 0-0.09 0-0.14 0h-0.06-0.07-0.11"/>
	<path class="s0" d="m402.88 131.93l-0.88 16.39c-0.08 1.6 0.41 3.18 1.38 4.44 0.97 1.25 2.36 2.1 3.89 2.38h0.2q0.06-0.02 0.11 0h0.03 0.1"/>
	<path class="s0" d="m407.85 155.21h-0.14-0.06-0.04-0.03-0.11-0.2c-1.54-0.28-2.92-1.12-3.89-2.38-0.97-1.26-1.46-2.83-1.38-4.43l0.88-16.39"/>
	<path class="s0" d="m365.27 142.78c-0.44-0.18 0 18.3-10.74 26.33"/>
	<path class="s0" d="m221.55 379.63h-34.39"/>
	<path class="s0" d="m557.51 379.63h-282.42"/>
	<path class="s2" d="m-91.92-15.88c0.33 6.92 0.09 13.85-0.72 20.73-1.05 8.08-8.32 18.35-9.9 26.34-2.25 11.5 1.16 23.38 5.83 34.06 5.65 12.9 14.56 25.88 13.69 40.66-0.44 6.43-2.31 12.68-5.45 18.27-3.14 5.58-7.48 10.36-12.69 13.97-7.13 4.9-15.28 8.02-23.8 9.12q-1.78 0.23-3.6 0.3c-0.67 0-1.34-0.08-2.01-0.13-22.64-1.97-45.87-19.71-45.81-44.41 0-15.78 11.67-28.12 13.64-43.43 1.21-9.37-1.46-19.1 1.01-28.19 4.01-14.51 19.5-22.43 26.29-35.79 4.99-9.87 5.81-21.38 9.76-31.72 5.51-14.41 14.3-30.87 26.32-32.24 3.49 0.4 6.86 1.53 9.92 3.32 7.45 4.11 9.35 4.37 10.86 8.04 1.55 3.84-0.76 7.93-4.62 9.16-6.52 2.12-9.33 15.72-8.72 31.94z"/>
	<path class="s0" d="m128.63 159.21c19.57-5.83 32.01 2.74 40.91 12.62 8.9 9.88 8.48 21.1 8.48 21.1"/>
	<path class="s0" d="m189.34 352.41c-0.3 15.7-2.24 31.33-5.78 46.61"/>
	<path class="s0" d="m237.97 480.3c-7.16 12.66-24.16 21.65-44.97 27.25-36.91 9.93-85.78 9.16-112.78-1.02-56.74-21.36-34.68-123.62-34.68-123.62 0 0 98.13-18.97 163.57 34.3 6.25 5.07 12.06 10.71 17.34 16.83 7.24 8.4 11.68 16.09 13.78 23.12 2.57 8.75 1.54 16.46-2.25 23.14z"/>
	<path class="s0" d="m200.36 505.82c0 0-34.38 98.01 23.38 123.04 57.76 25.04-212.12 28.37-152.54 0 59.57-28.36 25.33-117.05 25.33-117.05"/>
	<path class="s0" d="m270.3 172.76c-0.72-2.25-0.42-10.05-0.19-14.45 0.05-0.83 0.41-1.61 1-2.18 0.6-0.56 1.38-0.87 2.2-0.85l68.62 0.62c1.16 0.01 2.26 0.49 3.08 1.34 0.81 0.84 1.27 1.98 1.27 3.17v52.88q0 0.9-0.34 1.73-0.34 0.83-0.96 1.47-0.62 0.63-1.43 0.97-0.81 0.34-1.68 0.34l-66.87-0.26c-0.97-0.04-1.89-0.46-2.56-1.18-0.67-0.72-1.05-1.67-1.05-2.67v-4.03c4.76 2.27 13.75 2.97 13.75 2.97 3.2-0.09 8.26-0.48 11.03-2.12 2.54-1.49 5.75-3.64 6.18-6.89 0.17-1.26-0.16-2.53-0.9-3.55-0.75-1.01-1.85-1.68-3.07-1.86-0.74-0.15-1.5-0.09-2.21 0.16"/>
	<path class="s8" d="m337.27 319.31c-0.03 0.94-0.34 1.85-0.88 2.61-1.57 1.98-4.68 1.59-6.79 0.98-8.88-2.59-14.21 7.29-17.56 13.94-8.47 16.82-21.18 32.45-37.03 42.79q-1.55 1.03-3.14 1.97c-15.49 9.17-35.56 7.47-50.55-2.06l19.16-48.33 1.9 1.56c11.57 9.37 25.81 4.11 35.67-5.14 2.74-2.56 5.15-5.46 7.19-8.64 3.39-5.36 6.3-11.14 10.94-15.5 6.42-6.03 15.83-7.21 23.95-4.65 8.13 2.55 17.88 10.75 17.14 20.47z"/>
	<path class="s0" d="m337.19 315.88c0 0-2.18-11.84-21.81-2.6"/>
	<path class="s0" d="m326.27 301.67c0 0-12.24-4.02-19.05 5.58"/>
	<path class="s0" d="m79.24 369.46q4.91 0.45 9.81-0.16c8.51-1.12 16.66-4.25 23.79-9.15 5.21-3.61 9.55-8.39 12.69-13.97 3.14-5.59 5.01-11.83 5.45-18.27 0.87-14.78-8.01-27.76-13.69-40.67-4.67-10.68-8.08-22.56-5.82-34.04 1.57-8 8.83-18.26 9.88-26.35 0.82-6.88 1.06-13.81 0.73-20.73-0.6-16.23 2.2-29.84 8.72-31.92 3.86-1.22 6.18-5.33 4.62-9.15-1.49-3.68-3.4-3.9-10.86-8.06-19.46-10.87-32.98 9.39-40.45 28.92-3.96 10.35-4.76 21.85-9.77 31.71-6.79 13.37-22.31 21.27-26.28 35.81-2.48 9.08 0.2 18.82-1.01 28.17-1.96 15.3-13.62 27.64-13.65 43.44-0.05 24.68 23.2 42.44 45.84 44.42z"/>
	<path class="s0" d="m237.97 480.3c-1.67 12.25-4.17 26.31-6.92 40.37-7.8 39.88-17.73 80-17.73 80"/>
	<path class="s0" d="m240.2 457.16c0.03-1.5 0.05-2.87 0-4.17-0.59-28.13-20.29-34.85-28.76-36.47q-1.9-0.38-3.83-0.5"/>
	<path class="s0" d="m216.26 588.51c1.09-0.69 2.34-1.06 3.62-1.09 1.27-0.02 2.54 0.3 3.65 0.94 1.11 0.65 2.04 1.58 2.69 2.72 0.64 1.13 0.98 2.42 0.98 3.73q0 0.14 0 0.35c-0.11 3.39-0.98 6.7-2.54 9.69-1.56 2.98-3.78 5.56-6.47 7.52l-9.29 6.78"/>
	<path class="s0" d="m110.78 262.26q1.95-0.8 3.96-1.46c2.81-5.34 2.37-17.02 2.11-21.27l2.81-6.51c7.76 4.9 18.03 3.06 27.57-0.35q2.01-0.72 3.89-1.74c6.05-2.86 14.54-9.61 10.73-13.09-3.81-3.49-3.54-10.19-1.1-14.31 0.74-1.26 2.06-2.5 3.42-2.11 0.93 0.26 1.52 1.14 2.05 1.96q1 1.52 2 3c0.24 0.34 0.62 0.69 0.98 0.54q0.23-0.16 0.34-0.43c1.17-2.48 0.95-6.04 1.15-8.76q0.36-4.88 0.51-9.77c0.05-1.8 0.42-3.73 2.29-4.36q0.58-0.23 1.19-0.17 0.62 0.05 1.15 0.38 0.53 0.32 0.86 0.85 0.34 0.54 0.42 1.16c1.36 7.89 1.56 15.94 0.59 23.88-0.92 8.32-2.58 17.15-7.78 23.86-2.96 3.87-6.93 6.8-11.44 8.45-4.37 1.56-4.23 6.97-4.23 11.72v7.88c13.43 2.8 26.05 6.18 36.48 15.78q10.36 9.73 19.44 20.72c19.03 22.94 23.15 27.24 32.31 34.65 11.57 9.38 25.82 4.12 35.67-5.13 2.74-2.56 5.15-5.47 7.18-8.64 3.39-5.36 6.3-11.14 10.93-15.5 6.44-6.03 15.84-7.21 23.97-4.66 8.12 2.56 17.89 10.76 17.11 20.48-0.03 0.94-0.34 1.85-0.88 2.61-1.57 1.98-4.68 1.59-6.79 0.98-8.88-2.59-14.21 7.29-17.57 13.94-8.46 16.82-21.17 32.45-37.02 42.79q-1.54 1.02-3.14 1.96c-17.71 10.5-41.45 6.75-56.68-6.62l-36.74-32.03"/>
	<path class="s0" d="m114.74 260.8c0 0 17.54-5.57 39.51 0.83"/>
	<path class="s0" d="m271.39 209.66c0 0 0.14 23.32 5.56 32.3"/>
	<path class="s6" d="m289.2 102.9c-4.17 7.31-3.98 12.49-2.89 20.91 0.08 0.72-0.02 1.44-0.32 2.1-0.3 0.66-0.77 1.21-1.36 1.6-0.59 0.4-1.28 0.61-1.98 0.62-0.7 0.01-1.4-0.19-2-0.56-24.04-14.22-46.55-2.97-75.26-9.94-10.54-2.54-23.68-7.8-32.69-16.27-2.99-4.56-4.59-9.94-4.58-15.43 0-23.04 30.65-41.73 68.45-41.73 24.22 0 45.51 7.68 57.68 19.24q-0.01-0.01 0.03 0.04c3.05 4.51 4.72 9.86 4.78 15.35 0 8.29-5.98 17.21-9.86 24.07z"/>
	<path class="s0" d="m298.96 78.84v0.59c-0.14 8.07-4.08 15.57-8.75 22.07-3.12 4.35-6.83 9.17-5.95 14.5 0.39 2.35 1.66 4.48 2.01 6.86 0.34 2.38-0.91 5.3-3.22 5.42-1.47 0.08-2.73-1-3.89-1.92-6.9-5.49-15.87-7.55-24.58-7.91-8.72-0.35-17.43 0.82-26.15 1.07-12.57 0.37-25.34-1.24-36.96-6.17-10.44-4.47-19.96-11.75-26.23-21.43-6.15-9.54-2.51-23.38 4.05-31.67 6.16-7.78 15.07-12.76 24.22-16.27 24.59-9.43 52.66-9.21 76.91 1.12 7.2 3.03 14.15 7.04 19.56 12.81 5.28 5.63 8.93 13.14 8.98 20.93z"/>
	<path class="s8" d="m198.05 88.02c5.21 0 9.44-4.34 9.44-9.7 0-5.36-4.23-9.7-9.44-9.7-5.22 0-9.45 4.34-9.45 9.7 0 5.36 4.23 9.7 9.45 9.7z"/>
	<path class="s8" d="m228.59 88.02c5.22 0 9.44-4.34 9.44-9.7 0-5.36-4.22-9.7-9.44-9.7-5.22 0-9.45 4.34-9.45 9.7 0 5.36 4.23 9.7 9.45 9.7z"/>
	<path class="s8" d="m259.73 88.02c5.21 0 9.44-4.34 9.44-9.7 0-5.36-4.23-9.7-9.44-9.7-5.22 0-9.45 4.34-9.45 9.7 0 5.36 4.23 9.7 9.45 9.7z"/>
	<g style="opacity: .54">
		<path class="s10" d="m816.23 299l-3.84 56.94c-1.76 3.44-3.96 6.62-6.53 9.46q-0.42-0.15-0.84-0.34-0.77-0.28-1.5-0.6c-7.78-3.5-13.69-10.04-15.41-17.44-1.56-6.48-0.16-13.48-3.17-19.57-3.66-7.51-13.64-12.22-14.86-20.68-1.15-7.92 5.8-15.19 4.68-22.95-1.34-8.78-11.79-13.99-13.75-22.57-1.22-5.33-0.13-11.45-0.59-16.93-0.51-6.14-1.51-12.23-3-18.2 15.48-1.15 31.23 7.61 36.25 20.16 4.09 10.29 1.63 22.27 8.01 31.63 3.49 5.07 9.3 8.86 12.3 14.16 0.93 1.66 1.61 3.45 2.01 5.31q-0.01 0.21 0.04 0.37c0 0.21 0.06 0.36 0.08 0.52q0.11 0.72 0.12 0.73z"/>
		<path class="s10" d="m441.25 484.95q-0.01 0-0.1-0.68 0.07 0.27 0.1 0.55 0.02 0.03 0.02 0.06 0 0.04-0.02 0.07z"/>
	</g>
	<path class="s2" d="m926.39 329.74c-2 7.39-12.98 11.88-14.3 19.46-1.17 6.73 6.06 13 4.86 19.82-1.28 7.32-11.66 11.37-15.48 17.84-3.1 5.25-1.65 11.3-3.26 16.89-1.85 6.35-8.01 12.02-16.14 15.03q-0.74 0.28-1.5 0.52c-0.28 0.08-0.59 0.19-0.87 0.26-2.67-2.27-5.78-6.27-8.29-10.58l3.82-56.98c2.98-2.59 6.38-4.96 8.76-7.85 2.57-3.1 3.76-6.5 4.52-10.06h0.08v-0.39c1.12-5.62 1.22-11.5 3.79-16.83 5.22-10.85 21.59-18.41 37.7-17.42-1.52 5.13-2.56 10.39-3.1 15.72-0.46 4.71 0.67 9.99-0.59 14.56z"/>
	<path class="s7" d="m454.62 466.65v0.39h-0.08z"/>
	<path class="s11" d="m800.62 254.65l-0.08 0.39c-0.76 3.56-1.96 6.96-4.53 10.07-2.37 2.88-5.78 5.25-8.76 7.84q0.02-0.05 0-0.11-0.03-0.27-0.1-0.54c0-0.16-0.05-0.31-0.08-0.53q0.02-0.16-0.04-0.36c-0.4-1.86-1.08-3.66-2.01-5.31-3-5.3-8.81-9.1-12.29-14.17 0 0 1.57-26.72 14.89-34.84 12.62-7.69 13 33.12 13 37.56z"/>
	<path class="s7" d="m454.62 466.65v0.39h-0.08z"/>
	<path class="s7" d="m441.23 484.84v0.16q-0.01 0-0.1-0.68 0.06 0.26 0.1 0.52z"/>
	<path class="s0" d="m440.04 485c2.96-2.59 6.41-5 8.79-7.87 6.68-8.09 4.1-18.43 8.38-27.3 5.21-10.83 21.6-18.39 37.7-17.4-1.53 5.12-2.57 10.38-3.11 15.71-0.48 4.75 0.67 10.03-0.59 14.62-2.05 7.4-12.99 11.88-14.32 19.46-1.18 6.72 6.07 12.99 4.87 19.81-1.27 7.32-11.66 11.37-15.48 17.83-3.12 5.27-1.65 11.29-3.27 16.9-1.96 6.76-8.77 12.73-17.65 15.54q-0.43 0.16-0.87 0.28c-2.68-2.27-5.78-6.27-8.31-10.59"/>
	<path class="s0" d="m485.08 440.92c-24.01 26.54-35.31 82.5-39.7 111.39q-0.54 3.66-0.97 6.68"/>
	<path class="s0" d="m487.3 575.26l-11.02 66.95c-0.26 1.83-1.14 3.51-2.5 4.74-1.35 1.22-3.08 1.92-4.88 1.96h-57.77c-1.83-0.04-3.57-0.76-4.93-2-1.36-1.25-2.23-2.96-2.47-4.81l-10.19-66.85z"/>
	<path class="s0" d="m497.79 567.78c-0.1 1.99-0.92 3.86-2.31 5.25-1.39 1.38-3.23 2.18-5.17 2.23h-99.6c-1.92-0.05-3.75-0.83-5.13-2.19-1.38-1.36-2.22-3.2-2.34-5.16-0.42-4.81 3.04-8.92 7.47-8.92h99.6c4.39 0.01 7.84 4.06 7.48 8.79z"/>
	<path class="s0" d="m429.68 551.39c4.27-4.36 9.51-14.07 11.83-22 1.91-6.54-1.45-13.27-2.23-19.98-1.2-10.5 3.88-21.79-1.47-31.32-2.99-5.31-8.79-9.08-12.28-14.16-6.42-9.37-3.96-21.34-8.06-31.61-5.01-12.56-20.76-21.32-36.23-20.16 1.48 5.97 2.48 12.06 3 18.2 0.46 5.48-0.67 11.6 0.57 16.93 1.96 8.57 12.46 13.76 13.75 22.55 1.14 7.77-5.82 15.04-4.67 22.95 1.22 8.48 11.18 13.16 14.87 20.68 2.99 6.1 1.59 13.1 3.13 19.57 1.95 8.1 8.84 15.21 17.79 18.35z"/>
	<path class="s0" d="m390.69 422c23.05 30.76 33.9 95.58 38.17 129.04q0.53 4.37 0.94 7.95"/>
	<path class="s0" d="m425.52 463.93c0 0 1.58-26.72 14.89-34.85 13.3-8.12 13.02 37.4 13.02 37.4"/>
	<path class="s0" d="m440.04 485c0 0-2.72-15.28 2.05-30.31"/>
</svg>